<?xml version="1.0" standalone="no"?>
<!DOCTYPE svg PUBLIC "-//W3C//DTD SVG 20010904//EN"
 "http://www.w3.org/TR/2001/REC-SVG-20010904/DTD/svg10.dtd">
<svg version="1.0" xmlns="http://www.w3.org/2000/svg"
 width="512.000000pt" height="512.000000pt" viewBox="0 0 512.000000 512.000000"
 preserveAspectRatio="xMidYMid meet">
<metadata>
Created by potrace 1.16, written by Peter Selinger 2001-2019
</metadata>
<g transform="translate(0.000000,512.000000) scale(0.100000,-0.100000)"
fill="#000000" stroke="none">
<path d="M2435 4903 c-121 -44 -196 -111 -248 -222 -25 -53 -32 -82 -35 -151
-8 -164 67 -302 208 -382 l40 -23 0 -237 0 -237 -662 -3 -663 -3 -70 -24
c-116 -38 -184 -80 -271 -166 -118 -118 -193 -277 -194 -412 l0 -43 -156 0
c-85 0 -174 -5 -197 -11 -65 -16 -130 -69 -161 -130 l-26 -53 0 -881 0 -881
27 -55 c31 -60 92 -112 151 -129 20 -5 110 -10 200 -10 l162 0 0 -42 c0 -67
27 -166 68 -248 27 -56 58 -96 122 -161 97 -98 183 -148 306 -179 75 -19 117
-20 1524 -20 1407 0 1449 1 1524 20 123 31 209 81 306 179 64 65 95 105 122
161 41 82 68 181 68 248 l0 42 163 0 c89 0 179 5 199 10 59 17 120 69 151 129
l27 55 0 881 0 881 -26 53 c-31 61 -96 114 -161 130 -23 6 -112 11 -197 11
l-156 0 0 43 c0 64 -25 152 -72 247 -74 151 -218 273 -393 332 l-70 23 -662 3
-663 3 0 237 0 237 41 23 c142 81 216 220 207 388 -8 155 -93 280 -236 347
-57 26 -81 32 -157 34 -67 3 -103 -1 -140 -14z m180 -338 c16 -15 25 -36 25
-55 0 -19 -9 -40 -25 -55 -49 -50 -135 -15 -135 55 0 41 39 80 80 80 19 0 40
-9 55 -25z m1448 -1280 c73 -36 140 -109 167 -181 20 -55 20 -64 18 -1197 l-3
-1142 -27 -50 c-32 -62 -103 -129 -166 -158 l-47 -22 -1432 -3 c-1426 -2
-1432 -2 -1487 18 -69 26 -149 97 -184 164 l-27 51 0 1160 0 1160 30 54 c46
82 132 150 220 172 17 4 671 6 1455 6 l1425 -2 58 -30z m-3523 -1360 l0 -745
-110 0 -110 0 0 745 0 745 110 0 110 0 0 -745z m4260 0 l0 -745 -110 0 -110 0
0 745 0 745 110 0 110 0 0 -745z"/>
<path d="M1536 2939 c-147 -24 -282 -145 -328 -292 -62 -198 32 -416 217 -508
119 -58 251 -60 371 -5 325 149 325 623 1 772 -89 40 -163 50 -261 33z m119
-334 c73 -35 73 -135 -1 -170 -20 -9 -44 -13 -59 -9 -34 8 -75 59 -75 93 0 44
50 97 93 100 5 1 24 -6 42 -14z"/>
<path d="M3422 2939 c-199 -39 -342 -214 -342 -419 0 -319 327 -522 615 -381
212 104 295 359 188 577 -33 68 -126 157 -197 190 -86 39 -177 51 -264 33z
m151 -360 c34 -37 35 -78 2 -117 -32 -38 -67 -47 -109 -27 -73 35 -74 133 -2
169 40 21 74 13 109 -25z"/>
<path d="M1639 1637 c-19 -12 -44 -42 -56 -67 -22 -42 -23 -55 -23 -300 0
-246 1 -258 23 -300 12 -24 35 -53 50 -64 28 -21 36 -21 927 -21 898 0 899 0
927 21 15 12 37 36 48 55 18 31 20 55 23 299 3 259 2 266 -20 310 -13 25 -38
55 -57 67 l-34 23 -887 0 -887 0 -34 -23z m1591 -367 l0 -60 -670 0 -670 0 0
60 0 60 670 0 670 0 0 -60z"/>
</g>
</svg>
